# xmcd
#
# Track frame offsets:
#	150
#	13073
#	26535
#	42588
#	55813
#	67933
#	86320
#	101228
#	112005
#	132340
#	144318
#	157250
#
# Disc length: 2295 seconds
#
# Revision: 2
# Processed by: cddbd v1.5.2PL0 Copyright (c) Steve Scherf et al.
# Submitted via: audiograbber 1.83.01
#
DISCID=a408f50c
DTITLE=Pat Boone - "I Remember Red" A tribute to Red Foley
DYEAR=1994
DGENRE=Pop
TTITLE0=Just a Closer walk with Thee
TTITLE1=Satisfied mind
TTITLE2=Old Shep
TTITLE3=Beyond the Sunset
TTITLE4=Chattanooga Shoe Shine Boy
TTITLE5=Nearer My God To Thee
TTITLE6=Old Grand Pappy's New Banjo
TTITLE7=Going Home to Jesus
TTITLE8=Steal Away
TTITLE9=Tennessee Saturday Night
TTITLE10=Goodnight Mama, Goodnight Papa
TTITLE11=There Will Be Peace In The Valley
EXTD=
EXTT0=
EXTT1=
EXTT2=
EXTT3=
EXTT4=
EXTT5=
EXTT6=
EXTT7=
EXTT8=
EXTT9=
EXTT10=
EXTT11=
PLAYORDER=
